<?xml version="1.0" encoding="UTF-8" standalone="no"?>
<!-- Created with Pixodesk SVG (https://pixodesk.com) -->
<svg xmlns="http://www.w3.org/2000/svg" viewBox="0 0 1016 571.50002" text-rendering="geometricPrecision" shape-rendering="geometricPrecision">
  <defs>
    <linearGradient id="14115" x1="504.9762" y1="-274.50003" x2="504.9762" y2="103.47618" gradientUnits="userSpaceOnUse">
      <stop offset="0%" stop-color="rgb(36,38,94)"/>
      <stop offset="100%" stop-color="rgb(127,126,234)"/>
    </linearGradient>
    <filter id="filter1878" x="-0.0635" y="-0.0507" width="1.127" height="1.1015">
      <feGaussianBlur id="feGaussianBlur1880" stdDeviation="23.4882"/>
    </filter>
    <filter id="filter1986" x="-0.1536" y="-0.1536" width="1.3072" height="1.3072">
      <feGaussianBlur id="feGaussianBlur1988" stdDeviation="3.0168"/>
    </filter>
    <filter id="filter2334" x="-0.5472" y="-0.5472" width="2.0944" height="2.0944">
      <feGaussianBlur id="feGaussianBlur2336" stdDeviation="1.4888"/>
    </filter>
  </defs>
  <g id="layer1" transform="translate(0, 274.5)">
    <rect id="rect827" fill="url(#14115)" stroke="none" rx="0" ry="0.0924" y="-274.5" width="1016" height="571.5"/>
    <g id="g852" transform="translate(659.1746, -35.779)rotate(26.374132373651378)scale(0.508, 0.508)">
      <ellipse id="circle842" fill="#484995" stroke="none" cx="310.6964" cy="-251.0655" rx="151.2849" ry="151.2849"/>
      <path id="path837" fill="#ffecbd" stroke="none" transform="translate(0, -274.5)scale(0.2646, 0.2646)" d="M1174.2852,-483.2148C1150.5991,-482.9768,1126.9506,-481.2671,1103.4766,-478.0957C1388.9025,-441.842,1602.9328,-199.1467,1603.2148,88.5723C1602.8529,376.7064,1388.1548,619.5564,1102.2383,655.2383C1126.1221,658.4613,1150.1857,660.1711,1174.2852,660.3574C1325.9324,660.3578,1471.3686,600.1165,1578.5995,492.886C1685.8304,385.6554,1746.0722,240.2194,1746.0723,88.5723C1746.0727,-63.0752,1685.8312,-208.5118,1578.6002,-315.7427C1471.3692,-422.9737,1325.9327,-483.2153,1174.2852,-483.2148z"/>
      <path id="path1532" fill="#ffecbd" stroke="none" filter="url(#filter1878)" transform="translate(0, -274.5)scale(0.2646, 0.2646)" d="M1174.2852,-483.2148C1150.5991,-482.9768,1126.9506,-481.2671,1103.4766,-478.0957C1388.9025,-441.842,1602.9328,-199.1467,1603.2148,88.5723C1602.8529,376.7064,1388.1548,619.5564,1102.2383,655.2383C1126.1221,658.4613,1150.1857,660.1711,1174.2852,660.3574C1325.9324,660.3578,1471.3686,600.1165,1578.5995,492.886C1685.8304,385.6554,1746.0722,240.2194,1746.0723,88.5723C1746.0727,-63.0752,1685.8312,-208.5118,1578.6002,-315.7427C1471.3692,-422.9737,1325.9327,-483.2153,1174.2852,-483.2148z"/>
    </g>
    <path id="path815" fill="#4e5689" fill-rule="evenodd" stroke="none" d="M0,77.839L0,297L1016,297L1016,79.9771L984.6209,48.9738L980.3446,37.214L967.5157,26.5232L952.5486,26.5232L940.7887,22.2469L931.167,8.3489L912.9927,10.487L901.2328,26.5232L894.8184,43.6285L874.5059,55.3883L868.0914,66.0791L839.2263,39.3521L833.8809,16.9015L815.7066,10.487L796.4632,13.6943L772.9435,5.1416L762.2527,-8.7564L737.6639,-5.5491L715.2132,9.418L689.5554,-5.5491L667.1047,-30.1379L655.3449,-63.2793L635.0324,-77.1774L618.9962,-76.1083L602.96,-81.4537L577.3022,-115.6642L553.7825,-133.8385L539.8844,-133.8385L529.1936,-139.1839L513.1575,-140.253L499.2595,-130.6313L481.0851,-126.355L465.049,-102.8352L445.8055,-96.4208L426.5622,-75.0392L409.4569,-70.7629L388.0754,-78.2464L375.2464,-76.1083L360.2793,-61.1412L354.9339,-41.8978L344.2432,-38.6906L339.9668,-20.5162L329.276,-16.2399L310.0327,4.0726L285.4438,5.1416L273.684,27.5923L268.3386,52.1811L254.4406,58.5955L237.3353,56.4574L217.0229,35.0758L200.9867,19.0397L176.3979,19.0397L166.7762,7.2798L146.4637,19.0397L136.842,40.4212L114.3914,47.9048L91.9407,40.4212L79.1118,55.3883L72.6973,70.3554L50.2467,77.839L31.0033,62.8719L21.3816,71.4245L0,77.839z"/>
    <path id="path819" fill="#2e2741" fill-rule="evenodd" stroke="none" d="M0,77.839L0,297L1016,297L1016,87.4607L995.8463,79.9771L985.4065,64.7981L954.6543,64.5862L956.2255,53.4716L931.7015,43.0939L943.996,38.2831L925.3788,33.0025L929.6551,9.4828L912.9927,10.487L901.2328,26.5232L894.8184,43.6285L874.5059,55.3883L868.0914,66.0791L840.2954,56.9919L828.5355,47.3702L812.4993,40.4212L816.2411,25.9887L780.9616,22.2469L775.8834,12.8925L751.5619,7.8143L751.2946,-2.3419L737.6639,-5.5491L686.487,27.5608L682.2289,15.1458L650.7565,16.3378L626.8436,9.2144L620.3176,-3.2007L591.9458,-0.7003L589.0281,-17.0607L567.2116,-28.1295L584.9876,-32.8578L584.605,-56.6749L565.3236,-64.013L546.485,-83.8512L552.8745,-98.1318L541.9466,-100.874L543.5725,-119.0706L527.59,-137.5803L513.1575,-140.253L499.2595,-130.6313L481.0851,-126.3549L465.049,-102.8352L445.8055,-96.4208L426.5622,-75.0392L409.4569,-70.7629L388.0754,-78.2464L375.2464,-76.1083L360.2793,-61.1412L354.9339,-41.8978L344.2432,-38.6905L339.9668,-20.5162L329.276,-16.2399L310.0327,4.0726L285.4438,5.1416L273.684,27.5923L268.3386,52.1811L254.4406,58.5955L237.3353,56.4574L217.0229,35.0758L200.9867,19.0397L173.1907,20.1088L165.7071,9.9525L146.4637,19.0397L136.842,40.4212L114.3914,47.9048L91.9407,40.4212L79.1118,55.3883L72.6973,70.3554L50.2467,77.839L31.0033,62.8719L21.3816,71.4245L0,77.839z"/>
    <path id="path4555" fill="#29223d" fill-rule="evenodd" stroke="none" d="M1016,297L0,297L0,184.6892L40.4841,175.5476L61.3792,179.4654L74.4386,193.8307L105.7811,178.1595L176.3019,175.5476L186.7494,199.0545L219.3979,199.0545L232.4573,187.301L236.3751,176.8535L263.7998,170.3238L282.083,185.9951L299.0602,166.406L304.284,145.511L327.7909,135.0634L338.2384,110.2506L355.2156,102.415L370.8869,108.9447L395.6997,76.2962L402.2294,55.4011L416.5948,41.0358L450.5492,52.7892L458.3848,42.3417L481.8918,20.1407L504.0927,35.812L513.2343,60.6249L534.1293,56.7071L561.5541,38.4239L577.2253,54.0952L603.3442,60.6249L608.5679,76.2962L615.0976,91.9674L629.4629,95.8853L655.5817,90.6615L672.5589,112.8625L692.148,131.1456L711.7371,124.6159L739.1619,150.7347L763.9747,165.1001L769.1985,191.2189L788.7876,182.0773L813.6004,187.301L837.1073,169.0179L867.144,187.301L881.5093,172.9357L912.8519,154.6526L938.9706,153.3466L958.5597,175.5476L1016,179.4654L1016,297z"/>
  </g>
</svg>