<svg width="2145" height="1650" xmlns="http://www.w3.org/2000/svg" xmlns:xlink="http://www.w3.org/1999/xlink" xml:space="preserve" overflow="hidden"><g transform="translate(-1095 -412)"><g><path d="M1101.5 1047.5C1101.5 903.906 1217.91 787.5 1361.5 787.5 1505.09 787.5 1621.5 903.906 1621.5 1047.5 1621.5 1191.09 1505.09 1307.5 1361.5 1307.5 1217.91 1307.5 1101.5 1191.09 1101.5 1047.5Z" stroke="#042433" stroke-width="6.875" stroke-linecap="butt" stroke-linejoin="miter" stroke-miterlimit="8" stroke-opacity="1" fill="#156082" fill-rule="evenodd" fill-opacity="1"/><text fill="#FFFFFF" fill-opacity="1" font-family="Aptos,Aptos_MSFontService,sans-serif" font-style="normal" font-variant="normal" font-weight="400" font-stretch="normal" font-size="83" text-anchor="start" direction="ltr" writing-mode="lr-tb" unicode-bidi="normal" text-decoration="none" transform="matrix(1 0 0 1 1258.4 1073)">HTML</text><path d="M1841.5 922C1841.5 825.074 1920.07 746.5 2017 746.5 2113.93 746.5 2192.5 825.074 2192.5 922 2192.5 1018.93 2113.93 1097.5 2017 1097.5 1920.07 1097.5 1841.5 1018.93 1841.5 922Z" stroke="#042433" stroke-width="6.875" stroke-linecap="butt" stroke-linejoin="miter" stroke-miterlimit="8" stroke-opacity="1" fill="#156082" fill-rule="evenodd" fill-opacity="1"/><text fill="#FFFFFF" fill-opacity="1" font-family="Aptos,Aptos_MSFontService,sans-serif" font-style="normal" font-variant="normal" font-weight="400" font-stretch="normal" font-size="83" text-anchor="start" direction="ltr" writing-mode="lr-tb" unicode-bidi="normal" text-decoration="none" transform="matrix(1 0 0 1 1941.23 948)">CSS</text><path d="M1665.5 1446C1665.5 1317.04 1770.27 1212.5 1899.5 1212.5 2028.73 1212.5 2133.5 1317.04 2133.5 1446 2133.5 1574.96 2028.73 1679.5 1899.5 1679.5 1770.27 1679.5 1665.5 1574.96 1665.5 1446Z" stroke="#042433" stroke-width="6.875" stroke-linecap="butt" stroke-linejoin="miter" stroke-miterlimit="8" stroke-opacity="1" fill="#156082" fill-rule="evenodd" fill-opacity="1"/><text fill="#FFFFFF" fill-opacity="1" font-family="Aptos,Aptos_MSFontService,sans-serif" font-style="normal" font-variant="normal" font-weight="400" font-stretch="normal" font-size="83" text-anchor="start" direction="ltr" writing-mode="lr-tb" unicode-bidi="normal" text-decoration="none" transform="matrix(1 0 0 1 1862.4 1472)">JS</text><path d="M2278.5 1238C2278.5 1123.4 2371.62 1030.5 2486.5 1030.5 2601.38 1030.5 2694.5 1123.4 2694.5 1238 2694.5 1352.6 2601.38 1445.5 2486.5 1445.5 2371.62 1445.5 2278.5 1352.6 2278.5 1238Z" stroke="#042433" stroke-width="6.875" stroke-linecap="butt" stroke-linejoin="miter" stroke-miterlimit="8" stroke-opacity="1" fill="#156082" fill-rule="evenodd" fill-opacity="1"/><text fill="#FFFFFF" fill-opacity="1" font-family="Aptos,Aptos_MSFontService,sans-serif" font-style="normal" font-variant="normal" font-weight="400" font-stretch="normal" font-size="83" text-anchor="start" direction="ltr" writing-mode="lr-tb" unicode-bidi="normal" text-decoration="none" transform="matrix(1 0 0 1 2409.48 1264)">PHP</text><path d="M2556.5 757C2556.5 570.604 2707.83 419.5 2894.5 419.5 3081.17 419.5 3232.5 570.604 3232.5 757 3232.5 943.396 3081.17 1094.5 2894.5 1094.5 2707.83 1094.5 2556.5 943.396 2556.5 757Z" stroke="#042433" stroke-width="6.875" stroke-linecap="butt" stroke-linejoin="miter" stroke-miterlimit="8" stroke-opacity="1" fill="#156082" fill-rule="evenodd" fill-opacity="1"/><text fill="#FFFFFF" fill-opacity="1" font-family="Aptos,Aptos_MSFontService,sans-serif" font-style="normal" font-variant="normal" font-weight="400" font-stretch="normal" font-size="83" text-anchor="start" direction="ltr" writing-mode="lr-tb" unicode-bidi="normal" text-decoration="none" transform="matrix(1 0 0 1 2697.52 783)">MongooDB</text><path d="M1111.5 1710.5C1111.5 1595.62 1204.4 1502.5 1319 1502.5 1433.6 1502.5 1526.5 1595.62 1526.5 1710.5 1526.5 1825.38 1433.6 1918.5 1319 1918.5 1204.4 1918.5 1111.5 1825.38 1111.5 1710.5Z" stroke="#042433" stroke-width="6.875" stroke-linecap="butt" stroke-linejoin="miter" stroke-miterlimit="8" stroke-opacity="1" fill="#156082" fill-rule="evenodd" fill-opacity="1"/><text fill="#FFFFFF" fill-opacity="1" font-family="Aptos,Aptos_MSFontService,sans-serif" font-style="normal" font-variant="normal" font-weight="400" font-stretch="normal" font-size="83" text-anchor="start" direction="ltr" writing-mode="lr-tb" unicode-bidi="normal" text-decoration="none" transform="matrix(1 0 0 1 1215.24 1737)">UI/UX</text><path d="M2425.5 1823C2425.5 1694.04 2530.04 1589.5 2659 1589.5 2787.96 1589.5 2892.5 1694.04 2892.5 1823 2892.5 1951.96 2787.96 2056.5 2659 2056.5 2530.04 2056.5 2425.5 1951.96 2425.5 1823Z" stroke="#042433" stroke-width="6.875" stroke-linecap="butt" stroke-linejoin="miter" stroke-miterlimit="8" stroke-opacity="1" fill="#156082" fill-rule="evenodd" fill-opacity="1"/><text fill="#FFFFFF" fill-opacity="1" font-family="Aptos,Aptos_MSFontService,sans-serif" font-style="normal" font-variant="normal" font-weight="400" font-stretch="normal" font-size="83" text-anchor="start" direction="ltr" writing-mode="lr-tb" unicode-bidi="normal" text-decoration="none" transform="matrix(1 0 0 1 2584.65 1849)">SQL</text></g></g></svg>