<?xml version="1.0" encoding="UTF-8" standalone="no"?>
<!-- Created with Pixodesk SVG (https://pixodesk.com) -->
<svg xmlns="http://www.w3.org/2000/svg" viewBox="0 0 1016 571.50002" text-rendering="geometricPrecision" shape-rendering="geometricPrecision">
  <defs>
    <filter id="filter1878" x="-0.0635" y="-0.0507" width="1.127" height="1.1015">
      <feGaussianBlur id="feGaussianBlur1880" stdDeviation="23.4882"/>
    </filter>
    <filter id="filter1986" x="-0.1536" y="-0.1536" width="1.3072" height="1.3072">
      <feGaussianBlur id="feGaussianBlur1988" stdDeviation="3.0168"/>
    </filter>
    <filter id="filter2334" x="-0.5472" y="-0.5472" width="2.0944" height="2.0944">
      <feGaussianBlur id="feGaussianBlur2336" stdDeviation="1.4888"/>
    </filter>
    <filter id="_px_svg_1luch4ib" data-px-label="Drop Shadow" x="-0.5" y="-0.5" width="2" height="2">
      <feGaussianBlur in="SourceAlpha" stdDeviation="29"/>
      <feOffset dx="2" dy="-2"/>
      <feComponentTransfer result="offsetblur">
        <feFuncA/>
      </feComponentTransfer>
      <feFlood flood-color="#000000"/>
      <feComposite in2="offsetblur" operator="in"/>
      <feMerge>
        <feMergeNode/>
        <feMergeNode in="SourceGraphic"/>
      </feMerge>
    </filter>
  </defs>
  <g id="layer1" filter="url(#_px_svg_1luch4ib)" transform="translate(0, 274.5)">
    <path id="path4557" fill="#4e5689" fill-rule="evenodd" stroke="none" d="M0,297L0,129.8397L35.2604,116.7803L58.7673,119.3922L105.7811,140.2872L138.4296,132.4516L184.1375,145.511L190.6672,157.2644L214.1741,158.5704L228.5394,149.4288L286.0008,159.8763L327.7909,180.7713L359.1334,175.5476L374.8047,182.0773L399.6176,174.2416L455.773,192.5248L475.3621,185.9951L483.1977,174.2416L511.9284,187.301L556.3303,187.301L590.2848,166.406L596.8145,144.205L629.463,148.1229L643.8283,131.1456L672.559,148.1229L685.6184,171.6298L711.7372,182.0773L728.7144,199.0545L750.9153,188.607L760.0569,169.0179L780.9519,166.406L807.0707,148.1228L816.2123,123.31L834.4955,116.7803L856.6965,111.5565L865.838,131.1456L874.9796,123.31L902.4043,141.5931L948.1122,133.7575L974.231,149.4288L1016,129.8397L1016,297L0,297z"/>
    <path id="path4553" fill="#211936" fill-rule="evenodd" stroke="none" d="M0,297L0,129.8397L35.2604,116.7803L57.4613,122.004L105.7811,140.2872L138.4296,132.4516L171.0781,146.8169L190.6672,157.2644L214.1741,158.5704L228.5395,149.4288L280.777,164.4471L327.7909,180.7713L359.1334,175.5476L374.8047,182.0773L399.6176,174.2416L455.773,192.5248L475.3621,185.9951L483.1977,174.2416L511.9284,187.301L556.3303,187.301L590.2848,166.406L596.8145,144.205L629.463,148.1228L643.8283,131.1456L672.559,148.1228L685.6184,171.6297L711.7372,182.0773L728.7144,199.0545L750.9153,188.607L760.0569,169.0179L780.9519,166.406L807.0707,148.1228L816.2123,123.31L834.4955,116.7803L852.092,112.6393L865.7462,131.217L874.7403,123.5145L902.4043,141.5931L948.1122,133.7575L974.231,149.4288L1016,129.8397L1016,297L0,297z"/>
    <path id="path4551" fill="#1e1632" fill-rule="evenodd" stroke="none" d="M0,166.406L23.2851,179.8496L41.7901,180.7714L54.8495,193.8307L84.8861,202.9723L121.4524,196.4426L152.7949,179.4654L161.9365,167.7119L174.9959,172.9357L181.5256,192.5248L195.891,187.301L223.3157,188.607L248.1285,183.3832L272.9414,189.9129L296.4483,183.3832L306.8958,163.7941L323.873,144.205L339.5443,146.8169L361.7453,145.511L380.0284,124.6159C380.0284,124.6159,384.3016,114.8678,395.3829,113.0209L413.8516,113.0209L417.9007,127.2278L440.1017,129.8397L453.1611,149.4288L497.563,172.9357L519.764,167.7119L549.8006,142.8991L564.1659,148.1228L586.3669,135.0634L609.8738,138.9813L622.9332,112.8625L635.9926,94.5793L649.052,101.109L658.1936,116.7803L675.1708,115.4744L697.3718,132.4516L739.1619,127.2278L774.4223,148.1229L797.9292,172.9357L822.742,162.4882L843.637,137.6753L858.0024,145.511L877.5915,145.511L895.8746,163.7941L910.24,163.7941L938.9706,155.9585L954.6419,155.9585L979.4548,161.1822L985.9845,175.5476L1016,166.406L1016,297L0,297L0,166.406z"/>
  </g>
</svg>