<?xml version="1.0" encoding="UTF-8" standalone="no"?>
<!-- Created with Pixodesk SVG (https://pixodesk.com) -->
<svg xmlns="http://www.w3.org/2000/svg" viewBox="0 0 1016 571.50002" text-rendering="geometricPrecision" shape-rendering="geometricPrecision">
  <defs>
    <linearGradient id="1456" x1="504.9762" y1="-274.50003" x2="504.9762" y2="103.47618" gradientUnits="userSpaceOnUse">
      <stop offset="0%" stop-color="rgb(36,38,94)"/>
      <stop offset="100%" stop-color="rgb(127,126,234)"/>
    </linearGradient>
    <filter id="filter1878" x="-0.0635" y="-0.0507" width="1.127" height="1.1015">
      <feGaussianBlur id="feGaussianBlur1880" stdDeviation="23.4882"/>
    </filter>
    <filter id="filter1986" x="-0.1536" y="-0.1536" width="1.3072" height="1.3072">
      <feGaussianBlur id="feGaussianBlur1988" stdDeviation="3.0168"/>
    </filter>
    <filter id="filter2334" x="-0.5472" y="-0.5472" width="2.0944" height="2.0944">
      <feGaussianBlur id="feGaussianBlur2336" stdDeviation="1.4888"/>
    </filter>
  </defs>
  <g id="layer1" transform="translate(0, 274.5)">
    <rect id="rect827" fill="url(#1456)" stroke="none" rx="0" ry="0.0924" y="-274.5" width="1016" height="571.5"/>
    <g id="g852" transform="translate(659.1746, -35.779)rotate(26.374132373651378)scale(0.508, 0.508)">
      <ellipse id="circle842" fill="#484995" stroke="none" cx="310.6964" cy="-251.0655" rx="151.2849" ry="151.2849"/>
      <path id="path837" fill="#ffecbd" stroke="none" transform="translate(0, -274.5)scale(0.2646, 0.2646)" d="M1174.2852,-483.2148C1150.5991,-482.9768,1126.9506,-481.2671,1103.4766,-478.0957C1388.9025,-441.842,1602.9328,-199.1467,1603.2148,88.5723C1602.8529,376.7064,1388.1548,619.5564,1102.2383,655.2383C1126.1221,658.4613,1150.1857,660.1711,1174.2852,660.3574C1325.9324,660.3578,1471.3686,600.1165,1578.5995,492.886C1685.8304,385.6554,1746.0722,240.2194,1746.0723,88.5723C1746.0727,-63.0752,1685.8312,-208.5118,1578.6002,-315.7427C1471.3692,-422.9737,1325.9327,-483.2153,1174.2852,-483.2148z"/>
      <path id="path1532" fill="#ffecbd" stroke="none" filter="url(#filter1878)" transform="translate(0, -274.5)scale(0.2646, 0.2646)" d="M1174.2852,-483.2148C1150.5991,-482.9768,1126.9506,-481.2671,1103.4766,-478.0957C1388.9025,-441.842,1602.9328,-199.1467,1603.2148,88.5723C1602.8529,376.7064,1388.1548,619.5564,1102.2383,655.2383C1126.1221,658.4613,1150.1857,660.1711,1174.2852,660.3574C1325.9324,660.3578,1471.3686,600.1165,1578.5995,492.886C1685.8304,385.6554,1746.0722,240.2194,1746.0723,88.5723C1746.0727,-63.0752,1685.8312,-208.5118,1578.6002,-315.7427C1471.3692,-422.9737,1325.9327,-483.2153,1174.2852,-483.2148z"/>
    </g>
    <path id="path815" fill="#4e5689" fill-rule="evenodd" stroke="none" d="M0,77.839L0,297L1016,297L1016,79.9771L984.6209,48.9738L980.3446,37.214L967.5157,26.5232L952.5486,26.5232L940.7887,22.2469L931.167,8.3489L912.9927,10.487L901.2328,26.5232L894.8184,43.6285L874.5059,55.3883L868.0914,66.0791L839.2263,39.3521L833.8809,16.9015L815.7066,10.487L796.4632,13.6943L772.9435,5.1416L762.2527,-8.7564L737.6639,-5.5491L715.2132,9.418L689.5554,-5.5491L667.1047,-30.1379L655.3449,-63.2793L635.0324,-77.1774L618.9962,-76.1083L602.96,-81.4537L577.3022,-115.6642L553.7825,-133.8385L539.8844,-133.8385L529.1936,-139.1839L513.1575,-140.253L499.2595,-130.6313L481.0851,-126.355L465.049,-102.8352L445.8055,-96.4208L426.5622,-75.0392L409.4569,-70.7629L388.0754,-78.2464L375.2464,-76.1083L360.2793,-61.1412L354.9339,-41.8978L344.2432,-38.6906L339.9668,-20.5162L329.276,-16.2399L310.0327,4.0726L285.4438,5.1416L273.684,27.5923L268.3386,52.1811L254.4406,58.5955L237.3353,56.4574L217.0229,35.0758L200.9867,19.0397L176.3979,19.0397L166.7762,7.2798L146.4637,19.0397L136.842,40.4212L114.3914,47.9048L91.9407,40.4212L79.1118,55.3883L72.6973,70.3554L50.2467,77.839L31.0033,62.8719L21.3816,71.4245L0,77.839z"/>
    <path id="path819" fill="#2e2741" fill-rule="evenodd" stroke="none" d="M0,77.839L0,297L1016,297L1016,87.4607L995.8463,79.9771L985.4065,64.7981L954.6543,64.5862L956.2255,53.4716L931.7015,43.0939L943.996,38.2831L925.3788,33.0025L929.6551,9.4828L912.9927,10.487L901.2328,26.5232L894.8184,43.6285L874.5059,55.3883L868.0914,66.0791L840.2954,56.9919L828.5355,47.3702L812.4993,40.4212L816.2411,25.9887L780.9616,22.2469L775.8834,12.8925L751.5619,7.8143L751.2946,-2.3419L737.6639,-5.5491L686.487,27.5608L682.2289,15.1458L650.7565,16.3378L626.8436,9.2144L620.3176,-3.2007L591.9458,-0.7003L589.0281,-17.0607L567.2116,-28.1295L584.9876,-32.8578L584.605,-56.6749L565.3236,-64.013L546.485,-83.8512L552.8745,-98.1318L541.9466,-100.874L543.5725,-119.0706L527.59,-137.5803L513.1575,-140.253L499.2595,-130.6313L481.0851,-126.3549L465.049,-102.8352L445.8055,-96.4208L426.5622,-75.0392L409.4569,-70.7629L388.0754,-78.2464L375.2464,-76.1083L360.2793,-61.1412L354.9339,-41.8978L344.2432,-38.6905L339.9668,-20.5162L329.276,-16.2399L310.0327,4.0726L285.4438,5.1416L273.684,27.5923L268.3386,52.1811L254.4406,58.5955L237.3353,56.4574L217.0229,35.0758L200.9867,19.0397L173.1907,20.1088L165.7071,9.9525L146.4637,19.0397L136.842,40.4212L114.3914,47.9048L91.9407,40.4212L79.1118,55.3883L72.6973,70.3554L50.2467,77.839L31.0033,62.8719L21.3816,71.4245L0,77.839z"/>
    <g id="g1992" transform="translate(-14.013, -60.981)scale(0.5086, 0.5086)">
      <path id="path856" fill="#ffecbd" stroke="none" d="M151.1049,-166.4102L146.5244,-185.3984L127.5361,-189.9789L146.5244,-194.5594L151.1049,-213.5477L155.6854,-194.5594L174.6737,-189.9789L155.6854,-185.3984L151.1049,-166.4102z"/>
      <path id="path858" fill="#ffecbd" stroke="none" filter="url(#filter1986)" d="M151.1049,-166.4102L146.5244,-185.3984L127.5361,-189.9789L146.5244,-194.5594L151.1049,-213.5477L155.6854,-194.5594L174.6737,-189.9789L155.6854,-185.3984L151.1049,-166.4102z"/>
    </g>
    <g id="g2344" transform="translate(210.5691, 27.3899)scale(0.6064, 0.6064)">
      <ellipse id="path1994" fill="#ffecbd" stroke="none" cx="281.43" cy="-205.1338" rx="3.2648" ry="3.2648"/>
      <ellipse id="circle1996" fill="#ffecbd" stroke="none" filter="url(#filter2334)" cx="281.43" cy="-205.1338" rx="3.2648" ry="3.2648"/>
    </g>
    <g id="g2350" transform="translate(180.3066, 17.5539)scale(0.809, 0.809)">
      <ellipse id="circle2346" fill="#ffecbd" stroke="none" cx="281.43" cy="-205.1338" rx="3.2648" ry="3.2648"/>
      <ellipse id="circle2348" fill="#ffecbd" stroke="none" filter="url(#filter2334)" cx="281.43" cy="-205.1338" rx="3.2648" ry="3.2648"/>
    </g>
    <g id="g2356" transform="translate(202.2367, -97.8059)scale(0.3677, 0.3677)">
      <ellipse id="circle2352" fill="#ffecbd" stroke="none" cx="281.43" cy="-205.1338" rx="3.2648" ry="3.2648"/>
      <ellipse id="circle2354" fill="#ffecbd" stroke="none" filter="url(#filter2334)" cx="281.43" cy="-205.1338" rx="3.2648" ry="3.2648"/>
    </g>
    <g id="g2362" transform="translate(128.9479, -0.0349)scale(0.6064, 0.6064)">
      <ellipse id="circle2358" fill="#ffecbd" stroke="none" cx="281.43" cy="-205.1338" rx="3.2648" ry="3.2648"/>
      <ellipse id="circle2360" fill="#ffecbd" stroke="none" filter="url(#filter2334)" cx="281.43" cy="-205.1338" rx="3.2648" ry="3.2648"/>
    </g>
    <g id="g2368" transform="translate(34.4032, -36.0055)scale(0.809, 0.809)">
      <ellipse id="circle2364" fill="#ffecbd" stroke="none" cx="281.43" cy="-205.1338" rx="3.2648" ry="3.2648"/>
      <ellipse id="circle2366" fill="#ffecbd" stroke="none" filter="url(#filter2334)" cx="281.43" cy="-205.1338" rx="3.2648" ry="3.2648"/>
    </g>
    <g id="g2374" transform="translate(68.9244, -102.5366)scale(0.6064, 0.6064)">
      <ellipse id="circle2370" fill="#ffecbd" stroke="none" cx="281.43" cy="-205.1338" rx="3.2648" ry="3.2648"/>
      <ellipse id="circle2372" fill="#ffecbd" stroke="none" filter="url(#filter2334)" cx="281.43" cy="-205.1338" rx="3.2648" ry="3.2648"/>
    </g>
    <g id="g2380" transform="translate(-24.6969, -67.4025)scale(0.809, 0.809)">
      <ellipse id="circle2376" fill="#ffecbd" stroke="none" cx="281.43" cy="-205.1338" rx="3.2648" ry="3.2648"/>
      <ellipse id="circle2378" fill="#ffecbd" stroke="none" filter="url(#filter2334)" cx="281.43" cy="-205.1338" rx="3.2648" ry="3.2648"/>
    </g>
    <g id="g2386" transform="translate(-47.0918, 67.4896)scale(0.3677, 0.3677)">
      <ellipse id="circle2382" fill="#ffecbd" stroke="none" cx="281.43" cy="-205.1338" rx="3.2648" ry="3.2648"/>
      <ellipse id="circle2384" fill="#ffecbd" stroke="none" filter="url(#filter2334)" cx="281.43" cy="-205.1338" rx="3.2648" ry="3.2648"/>
    </g>
    <g id="g2392" transform="translate(61.9997, 81.4248)scale(0.2298, 0.2298)">
      <ellipse id="circle2388" fill="#ffecbd" stroke="none" cx="281.43" cy="-205.1338" rx="3.2648" ry="3.2648"/>
      <ellipse id="circle2390" fill="#ffecbd" stroke="none" filter="url(#filter2334)" cx="281.43" cy="-205.1338" rx="3.2648" ry="3.2648"/>
    </g>
    <g id="g2398" transform="translate(-26.9215, 44.865)scale(0.5028, 0.5028)">
      <ellipse id="circle2394" fill="#ffecbd" stroke="none" cx="281.43" cy="-205.1338" rx="3.2648" ry="3.2648"/>
      <ellipse id="circle2396" fill="#ffecbd" stroke="none" filter="url(#filter2334)" cx="281.43" cy="-205.1338" rx="3.2648" ry="3.2648"/>
    </g>
    <g id="g2404" transform="translate(14.6333, -13.7734)scale(0.5028, 0.5028)">
      <ellipse id="circle2400" fill="#ffecbd" stroke="none" cx="281.43" cy="-205.1338" rx="3.2648" ry="3.2648"/>
      <ellipse id="circle2402" fill="#ffecbd" stroke="none" filter="url(#filter2334)" cx="281.43" cy="-205.1338" rx="3.2648" ry="3.2648"/>
    </g>
    <g id="g2410" transform="translate(101.8982, 31.0134)scale(0.5028, 0.5028)">
      <ellipse id="circle2406" fill="#ffecbd" stroke="none" cx="281.43" cy="-205.1338" rx="3.2648" ry="3.2648"/>
      <ellipse id="circle2408" fill="#ffecbd" stroke="none" filter="url(#filter2334)" cx="281.43" cy="-205.1338" rx="3.2648" ry="3.2648"/>
    </g>
    <g id="g2416" transform="translate(525.7568, 25.9722)scale(0.809, 0.809)">
      <ellipse id="circle2412" fill="#ffecbd" stroke="none" cx="281.43" cy="-205.1338" rx="3.2648" ry="3.2648"/>
      <ellipse id="circle2414" fill="#ffecbd" stroke="none" filter="url(#filter2334)" cx="281.43" cy="-205.1338" rx="3.2648" ry="3.2648"/>
    </g>
    <g id="g2422" transform="translate(397.1217, 22.0544)scale(0.809, 0.809)">
      <ellipse id="circle2418" fill="#ffecbd" stroke="none" cx="281.43" cy="-205.1338" rx="3.2648" ry="3.2648"/>
      <ellipse id="circle2420" fill="#ffecbd" stroke="none" filter="url(#filter2334)" cx="281.43" cy="-205.1338" rx="3.2648" ry="3.2648"/>
    </g>
    <g id="g2428" transform="translate(704.0175, -68.0554)scale(0.809, 0.809)">
      <ellipse id="circle2424" fill="#ffecbd" stroke="none" cx="281.43" cy="-205.1338" rx="3.2648" ry="3.2648"/>
      <ellipse id="circle2426" fill="#ffecbd" stroke="none" filter="url(#filter2334)" cx="281.43" cy="-205.1338" rx="3.2648" ry="3.2648"/>
    </g>
    <g id="g2434" transform="translate(591.0537, -23.6535)scale(0.809, 0.809)">
      <ellipse id="circle2430" fill="#ffecbd" stroke="none" cx="281.43" cy="-205.1338" rx="3.2648" ry="3.2648"/>
      <ellipse id="circle2432" fill="#ffecbd" stroke="none" filter="url(#filter2334)" cx="281.43" cy="-205.1338" rx="3.2648" ry="3.2648"/>
    </g>
    <g id="g2440" transform="translate(332.4777, -71.3203)scale(0.809, 0.809)">
      <ellipse id="circle2436" fill="#ffecbd" stroke="none" cx="281.43" cy="-205.1338" rx="3.2648" ry="3.2648"/>
      <ellipse id="circle2438" fill="#ffecbd" stroke="none" filter="url(#filter2334)" cx="281.43" cy="-205.1338" rx="3.2648" ry="3.2648"/>
    </g>
    <g id="g2446" transform="translate(332.4777, -71.3203)scale(0.809, 0.809)">
      <ellipse id="circle2442" fill="#ffecbd" stroke="none" cx="281.43" cy="-205.1338" rx="3.2648" ry="3.2648"/>
      <ellipse id="circle2444" fill="#ffecbd" stroke="none" filter="url(#filter2334)" cx="281.43" cy="-205.1338" rx="3.2648" ry="3.2648"/>
    </g>
    <g id="g2452" transform="translate(514.8531, 26.0839)scale(0.6064, 0.6064)">
      <ellipse id="circle2448" fill="#ffecbd" stroke="none" cx="281.43" cy="-205.1338" rx="3.2648" ry="3.2648"/>
      <ellipse id="circle2450" fill="#ffecbd" stroke="none" filter="url(#filter2334)" cx="281.43" cy="-205.1338" rx="3.2648" ry="3.2648"/>
    </g>
    <g id="g2458" transform="translate(462.6155, -65.9848)scale(0.6064, 0.6064)">
      <ellipse id="circle2454" fill="#ffecbd" stroke="none" cx="281.43" cy="-205.1338" rx="3.2648" ry="3.2648"/>
      <ellipse id="circle2456" fill="#ffecbd" stroke="none" filter="url(#filter2334)" cx="281.43" cy="-205.1338" rx="3.2648" ry="3.2648"/>
    </g>
    <g id="g2464" transform="translate(522.0358, -38.5601)scale(0.6064, 0.6064)">
      <ellipse id="circle2460" fill="#ffecbd" stroke="none" cx="281.43" cy="-205.1338" rx="3.2648" ry="3.2648"/>
      <ellipse id="circle2462" fill="#ffecbd" stroke="none" filter="url(#filter2334)" cx="281.43" cy="-205.1338" rx="3.2648" ry="3.2648"/>
    </g>
    <g id="g2470" transform="translate(582.762, -103.2041)scale(0.6064, 0.6064)">
      <ellipse id="circle2466" fill="#ffecbd" stroke="none" cx="281.43" cy="-205.1338" rx="3.2648" ry="3.2648"/>
      <ellipse id="circle2468" fill="#ffecbd" stroke="none" filter="url(#filter2334)" cx="281.43" cy="-205.1338" rx="3.2648" ry="3.2648"/>
    </g>
    <g id="g2476" transform="translate(347.0399, -71.2086)scale(0.6064, 0.6064)">
      <ellipse id="circle2472" fill="#ffecbd" stroke="none" cx="281.43" cy="-205.1338" rx="3.2648" ry="3.2648"/>
      <ellipse id="circle2474" fill="#ffecbd" stroke="none" filter="url(#filter2334)" cx="281.43" cy="-205.1338" rx="3.2648" ry="3.2648"/>
    </g>
    <g id="g2482" transform="translate(250.4003, -120.1813)scale(0.6064, 0.6064)">
      <ellipse id="circle2478" fill="#ffecbd" stroke="none" cx="281.43" cy="-205.1338" rx="3.2648" ry="3.2648"/>
      <ellipse id="circle2480" fill="#ffecbd" stroke="none" filter="url(#filter2334)" cx="281.43" cy="-205.1338" rx="3.2648" ry="3.2648"/>
    </g>
    <g id="g2488" transform="translate(658.6626, 43.2356)scale(0.3677, 0.3677)">
      <ellipse id="circle2484" fill="#ffecbd" stroke="none" cx="281.43" cy="-205.1338" rx="3.2648" ry="3.2648"/>
      <ellipse id="circle2486" fill="#ffecbd" stroke="none" filter="url(#filter2334)" cx="281.43" cy="-205.1338" rx="3.2648" ry="3.2648"/>
    </g>
    <g id="g2494" transform="translate(752.6903, 107.8796)scale(0.3677, 0.3677)">
      <ellipse id="circle2490" fill="#ffecbd" stroke="none" cx="281.43" cy="-205.1338" rx="3.2648" ry="3.2648"/>
      <ellipse id="circle2492" fill="#ffecbd" stroke="none" filter="url(#filter2334)" cx="281.43" cy="-205.1338" rx="3.2648" ry="3.2648"/>
    </g>
    <g id="g2500" transform="translate(616.2196, 68.7014)scale(0.3677, 0.3677)">
      <ellipse id="circle2496" fill="#ffecbd" stroke="none" cx="281.43" cy="-205.1338" rx="3.2648" ry="3.2648"/>
      <ellipse id="circle2498" fill="#ffecbd" stroke="none" filter="url(#filter2334)" cx="281.43" cy="-205.1338" rx="3.2648" ry="3.2648"/>
    </g>
    <g id="g2506" transform="translate(856.5125, 53.6831)scale(0.3677, 0.3677)">
      <ellipse id="circle2502" fill="#ffecbd" stroke="none" cx="281.43" cy="-205.1338" rx="3.2648" ry="3.2648"/>
      <ellipse id="circle2504" fill="#ffecbd" stroke="none" filter="url(#filter2334)" cx="281.43" cy="-205.1338" rx="3.2648" ry="3.2648"/>
    </g>
    <g id="g2512" transform="translate(887.855, -12.9198)scale(0.3677, 0.3677)">
      <ellipse id="circle2508" fill="#ffecbd" stroke="none" cx="281.43" cy="-205.1338" rx="3.2648" ry="3.2648"/>
      <ellipse id="circle2510" fill="#ffecbd" stroke="none" filter="url(#filter2334)" cx="281.43" cy="-205.1338" rx="3.2648" ry="3.2648"/>
    </g>
    <g id="g2518" transform="translate(846.7179, -29.2441)scale(0.3677, 0.3677)">
      <ellipse id="circle2514" fill="#ffecbd" stroke="none" cx="281.43" cy="-205.1338" rx="3.2648" ry="3.2648"/>
      <ellipse id="circle2516" fill="#ffecbd" stroke="none" filter="url(#filter2334)" cx="281.43" cy="-205.1338" rx="3.2648" ry="3.2648"/>
    </g>
    <g id="g2524" transform="translate(836.7672, 99.2166)scale(0.6064, 0.6064)">
      <ellipse id="circle2520" fill="#ffecbd" stroke="none" cx="281.43" cy="-205.1338" rx="3.2648" ry="3.2648"/>
      <ellipse id="circle2522" fill="#ffecbd" stroke="none" filter="url(#filter2334)" cx="281.43" cy="-205.1338" rx="3.2648" ry="3.2648"/>
    </g>
    <g id="g2530" transform="translate(-111.5001, -49.8571)scale(0.809, 0.809)">
      <ellipse id="circle2526" fill="#ffecbd" stroke="none" cx="281.43" cy="-205.1338" rx="3.2648" ry="3.2648"/>
      <ellipse id="circle2528" fill="#ffecbd" stroke="none" filter="url(#filter2334)" cx="281.43" cy="-205.1338" rx="3.2648" ry="3.2648"/>
    </g>
    <g id="g2542" transform="translate(-100.7966, -122.7392)scale(0.5028, 0.5028)">
      <ellipse id="circle2538" fill="#ffecbd" stroke="none" cx="281.43" cy="-205.1338" rx="3.2648" ry="3.2648"/>
      <ellipse id="circle2540" fill="#ffecbd" stroke="none" filter="url(#filter2334)" cx="281.43" cy="-205.1338" rx="3.2648" ry="3.2648"/>
    </g>
    <g id="g2548" transform="translate(-146.6784, 55.2721)scale(0.6064, 0.6064)">
      <ellipse id="circle2544" fill="#ffecbd" stroke="none" cx="281.43" cy="-205.1338" rx="3.2648" ry="3.2648"/>
      <ellipse id="circle2546" fill="#ffecbd" stroke="none" filter="url(#filter2334)" cx="281.43" cy="-205.1338" rx="3.2648" ry="3.2648"/>
    </g>
    <g id="g2554" transform="translate(543.3034, -136.5475)scale(0.3588, 0.3588)">
      <path id="path2550" fill="#ffecbd" stroke="none" d="M151.1049,-166.4102L146.5244,-185.3984L127.5361,-189.9789L146.5244,-194.5594L151.1049,-213.5477L155.6854,-194.5594L174.6737,-189.9789L155.6854,-185.3984L151.1049,-166.4102z"/>
      <path id="path2552" fill="#ffecbd" stroke="none" filter="url(#filter1986)" d="M151.1049,-166.4102L146.5244,-185.3984L127.5361,-189.9789L146.5244,-194.5594L151.1049,-213.5477L155.6854,-194.5594L174.6737,-189.9789L155.6854,-185.3984L151.1049,-166.4102z"/>
    </g>
    <path id="path4555" fill="#29223d" fill-rule="evenodd" stroke="none" d="M1016,297L0,297L0,184.6892L40.4841,175.5476L61.3792,179.4654L74.4386,193.8307L105.7811,178.1595L176.3019,175.5476L186.7494,199.0545L219.3979,199.0545L232.4573,187.301L236.3751,176.8535L263.7998,170.3238L282.083,185.9951L299.0602,166.406L304.284,145.511L327.7909,135.0634L338.2384,110.2506L355.2156,102.415L370.8869,108.9447L395.6997,76.2962L402.2294,55.4011L416.5948,41.0358L450.5492,52.7892L458.3848,42.3417L481.8918,20.1407L504.0927,35.812L513.2343,60.6249L534.1293,56.7071L561.5541,38.4239L577.2253,54.0952L603.3442,60.6249L608.5679,76.2962L615.0976,91.9674L629.4629,95.8853L655.5817,90.6615L672.5589,112.8625L692.148,131.1456L711.7371,124.6159L739.1619,150.7347L763.9747,165.1001L769.1985,191.2189L788.7876,182.0773L813.6004,187.301L837.1073,169.0179L867.144,187.301L881.5093,172.9357L912.8519,154.6526L938.9706,153.3466L958.5597,175.5476L1016,179.4654L1016,297z"/>
  </g>
</svg>